<svg xmlns="http://www.w3.org/2000/svg" xmlns:xlink="http://www.w3.org/1999/xlink" width="2000" zoomAndPan="magnify" viewBox="0 0 1500 1499.999933" height="2000" preserveAspectRatio="xMidYMid meet" version="1.0"><defs><g/><clipPath id="0141e95026"><path d="M 52.761719 0 L 1350 0 L 1350 1297.238281 L 52.761719 1297.238281 Z M 52.761719 0 " clip-rule="nonzero"/></clipPath><clipPath id="bf48d624f1"><path d="M 129.46875 543.898438 C 167.210938 589.28125 167.285156 709.6875 129.757812 755.246094 C 82.578125 812.519531 54.316406 885.796875 54.316406 965.460938 C 54.316406 1149.441406 203.347656 1297.238281 385.316406 1297.238281 C 465.394531 1297.238281 538.6875 1269.074219 595.929688 1222.03125 C 641.597656 1184.5 762.730469 1184.496094 808.398438 1222.023438 C 865.640625 1269.070312 938.9375 1297.238281 1019.035156 1297.238281 C 1201.003906 1297.238281 1350 1149.441406 1350 965.460938 C 1350 885.203125 1320.859375 811.433594 1272.882812 753.972656 C 1235.1875 708.824219 1235.1875 589.957031 1272.824219 544.761719 C 1320.839844 487.117188 1350 412.925781 1350 331.773438 C 1350 149.386719 1201.003906 0 1019.035156 0 C 939.628906 0 867.1875 27.542969 810.246094 73.644531 C 763.890625 111.175781 638.128906 110.753906 591.773438 73.226562 C 535.136719 27.378906 462.894531 0 383.730469 0 C 201.757812 0 52.761719 149.386719 52.761719 331.773438 C 52.761719 412.519531 81.636719 486.375 129.46875 543.898438 Z M 129.46875 543.898438 " clip-rule="nonzero"/></clipPath><clipPath id="b19f621280"><path d="M 0.761719 0 L 1298 0 L 1298 1297.238281 L 0.761719 1297.238281 Z M 0.761719 0 " clip-rule="nonzero"/></clipPath><clipPath id="e117161fdb"><path d="M 77.46875 543.898438 C 115.210938 589.28125 115.285156 709.6875 77.757812 755.246094 C 30.578125 812.519531 2.316406 885.796875 2.316406 965.460938 C 2.316406 1149.441406 151.347656 1297.238281 333.316406 1297.238281 C 413.394531 1297.238281 486.6875 1269.074219 543.929688 1222.03125 C 589.597656 1184.5 710.730469 1184.496094 756.398438 1222.023438 C 813.640625 1269.070312 886.9375 1297.238281 967.035156 1297.238281 C 1149.003906 1297.238281 1298 1149.441406 1298 965.460938 C 1298 885.203125 1268.859375 811.433594 1220.882812 753.972656 C 1183.1875 708.824219 1183.1875 589.957031 1220.824219 544.761719 C 1268.839844 487.117188 1298 412.925781 1298 331.773438 C 1298 149.386719 1149.003906 0 967.035156 0 C 887.628906 0 815.1875 27.542969 758.246094 73.644531 C 711.890625 111.175781 586.128906 110.753906 539.773438 73.226562 C 483.136719 27.378906 410.894531 0 331.730469 0 C 149.757812 0 0.761719 149.386719 0.761719 331.773438 C 0.761719 412.519531 29.636719 486.375 77.46875 543.898438 Z M 77.46875 543.898438 " clip-rule="nonzero"/></clipPath><clipPath id="96081cc464"><rect x="0" width="1298" y="0" height="1298"/></clipPath><clipPath id="ec409b074a"><path d="M 157.285156 101.382812 L 1454.523438 101.382812 L 1454.523438 1398.617188 L 157.285156 1398.617188 Z M 157.285156 101.382812 " clip-rule="nonzero"/></clipPath><clipPath id="0ac96f13aa"><path d="M 233.992188 645.28125 C 271.734375 690.664062 271.808594 811.066406 234.28125 856.625 C 187.101562 913.902344 158.839844 987.179688 158.839844 1066.84375 C 158.839844 1250.820312 307.871094 1398.617188 489.839844 1398.617188 C 569.917969 1398.617188 643.210938 1370.457031 700.453125 1323.410156 C 746.121094 1285.882812 867.253906 1285.875 912.921875 1323.40625 C 970.164062 1370.453125 1043.460938 1398.617188 1123.558594 1398.617188 C 1305.527344 1398.617188 1454.523438 1250.820312 1454.523438 1066.84375 C 1454.523438 986.585938 1425.382812 912.816406 1377.40625 855.351562 C 1339.707031 810.207031 1339.707031 691.339844 1377.347656 646.144531 C 1425.363281 588.496094 1454.523438 514.308594 1454.523438 433.15625 C 1454.523438 250.765625 1305.527344 101.382812 1123.558594 101.382812 C 1044.152344 101.382812 971.710938 128.925781 914.769531 175.027344 C 868.414062 212.558594 742.652344 212.136719 696.296875 174.609375 C 639.65625 128.757812 567.417969 101.382812 488.253906 101.382812 C 306.28125 101.382812 157.285156 250.765625 157.285156 433.15625 C 157.285156 513.898438 186.15625 587.757812 233.992188 645.28125 Z M 233.992188 645.28125 " clip-rule="nonzero"/></clipPath><clipPath id="8025a753ea"><path d="M 0.285156 0.382812 L 1297.523438 0.382812 L 1297.523438 1297.617188 L 0.285156 1297.617188 Z M 0.285156 0.382812 " clip-rule="nonzero"/></clipPath><clipPath id="4b49aa0866"><path d="M 76.992188 544.28125 C 114.734375 589.664062 114.808594 710.066406 77.28125 755.625 C 30.101562 812.902344 1.839844 886.179688 1.839844 965.84375 C 1.839844 1149.820312 150.871094 1297.617188 332.839844 1297.617188 C 412.917969 1297.617188 486.210938 1269.457031 543.453125 1222.410156 C 589.121094 1184.882812 710.253906 1184.875 755.921875 1222.40625 C 813.164062 1269.453125 886.460938 1297.617188 966.558594 1297.617188 C 1148.527344 1297.617188 1297.523438 1149.820312 1297.523438 965.84375 C 1297.523438 885.585938 1268.382812 811.816406 1220.40625 754.351562 C 1182.707031 709.207031 1182.707031 590.339844 1220.347656 545.144531 C 1268.363281 487.496094 1297.523438 413.308594 1297.523438 332.15625 C 1297.523438 149.765625 1148.527344 0.382812 966.558594 0.382812 C 887.152344 0.382812 814.710938 27.925781 757.769531 74.027344 C 711.414062 111.558594 585.652344 111.136719 539.296875 73.609375 C 482.65625 27.757812 410.417969 0.382812 331.253906 0.382812 C 149.28125 0.382812 0.285156 149.765625 0.285156 332.15625 C 0.285156 412.898438 29.15625 486.757812 76.992188 544.28125 Z M 76.992188 544.28125 " clip-rule="nonzero"/></clipPath><clipPath id="ed14d3c81d"><rect x="0" width="1298" y="0" height="1298"/></clipPath><clipPath id="96756fa595"><path d="M 104.625 52.761719 L 1401.863281 52.761719 L 1401.863281 1350 L 104.625 1350 Z M 104.625 52.761719 " clip-rule="nonzero"/></clipPath><clipPath id="edb10d35c0"><path d="M 181.332031 596.664062 C 219.070312 642.042969 219.148438 762.449219 181.621094 808.007812 C 134.441406 865.285156 106.179688 938.5625 106.179688 1018.226562 C 106.179688 1202.203125 255.207031 1350 437.179688 1350 C 517.257812 1350 590.550781 1321.839844 647.792969 1274.792969 C 693.460938 1237.265625 814.59375 1237.257812 860.261719 1274.785156 C 917.503906 1321.835938 990.800781 1350 1070.894531 1350 C 1252.867188 1350 1401.863281 1202.203125 1401.863281 1018.226562 C 1401.863281 937.96875 1372.722656 864.195312 1324.746094 806.734375 C 1287.046875 761.589844 1287.046875 642.71875 1324.6875 597.527344 C 1372.699219 539.878906 1401.863281 465.6875 1401.863281 384.539062 C 1401.863281 202.148438 1252.867188 52.761719 1070.894531 52.761719 C 991.492188 52.761719 919.050781 80.308594 862.109375 126.410156 C 815.753906 163.941406 689.992188 163.519531 643.636719 125.992188 C 586.996094 80.140625 514.757812 52.761719 435.59375 52.761719 C 253.621094 52.761719 104.625 202.148438 104.625 384.539062 C 104.625 465.28125 133.496094 539.136719 181.332031 596.664062 Z M 181.332031 596.664062 " clip-rule="nonzero"/></clipPath><clipPath id="25f58844d6"><path d="M 0.625 0.761719 L 1297.863281 0.761719 L 1297.863281 1298 L 0.625 1298 Z M 0.625 0.761719 " clip-rule="nonzero"/></clipPath><clipPath id="1c1511b19b"><path d="M 77.332031 544.664062 C 115.070312 590.042969 115.148438 710.449219 77.621094 756.007812 C 30.441406 813.285156 2.179688 886.5625 2.179688 966.226562 C 2.179688 1150.203125 151.207031 1298 333.179688 1298 C 413.257812 1298 486.550781 1269.839844 543.792969 1222.792969 C 589.460938 1185.265625 710.59375 1185.257812 756.261719 1222.785156 C 813.503906 1269.835938 886.800781 1298 966.894531 1298 C 1148.867188 1298 1297.863281 1150.203125 1297.863281 966.226562 C 1297.863281 885.96875 1268.722656 812.195312 1220.746094 754.734375 C 1183.046875 709.589844 1183.046875 590.71875 1220.6875 545.527344 C 1268.699219 487.878906 1297.863281 413.6875 1297.863281 332.539062 C 1297.863281 150.148438 1148.867188 0.761719 966.894531 0.761719 C 887.492188 0.761719 815.050781 28.308594 758.109375 74.410156 C 711.753906 111.941406 585.992188 111.519531 539.636719 73.992188 C 482.996094 28.140625 410.757812 0.761719 331.59375 0.761719 C 149.621094 0.761719 0.625 150.148438 0.625 332.539062 C 0.625 413.28125 29.496094 487.136719 77.332031 544.664062 Z M 77.332031 544.664062 " clip-rule="nonzero"/></clipPath><clipPath id="130444e6fa"><rect x="0" width="1298" y="0" height="1298"/></clipPath><clipPath id="65f4fba943"><rect x="0" width="859" y="0" height="306"/></clipPath></defs><g clip-path="url(#0141e95026)"><g clip-path="url(#bf48d624f1)"><g transform="matrix(1, 0, 0, 1, 52, 0.000000000000112861)"><g clip-path="url(#96081cc464)"><g clip-path="url(#b19f621280)"><g clip-path="url(#e117161fdb)"><path fill="#c40505" d="M 0.761719 0 L 1298 0 L 1298 1297.238281 L 0.761719 1297.238281 Z M 0.761719 0 " fill-opacity="1" fill-rule="nonzero"/></g></g></g></g></g></g><g clip-path="url(#ec409b074a)"><g clip-path="url(#0ac96f13aa)"><g transform="matrix(1, 0, 0, 1, 157, 101)"><g clip-path="url(#ed14d3c81d)"><g clip-path="url(#8025a753ea)"><g clip-path="url(#4b49aa0866)"><path fill="#00cb69" d="M 0.285156 0.382812 L 1297.523438 0.382812 L 1297.523438 1297.617188 L 0.285156 1297.617188 Z M 0.285156 0.382812 " fill-opacity="1" fill-rule="nonzero"/></g></g></g></g></g></g><g clip-path="url(#96756fa595)"><g clip-path="url(#edb10d35c0)"><g transform="matrix(1, 0, 0, 1, 104, 52)"><g clip-path="url(#130444e6fa)"><g clip-path="url(#25f58844d6)"><g clip-path="url(#1c1511b19b)"><path fill="#000000" d="M 0.625 0.761719 L 1297.863281 0.761719 L 1297.863281 1298 L 0.625 1298 Z M 0.625 0.761719 " fill-opacity="1" fill-rule="nonzero"/></g></g></g></g></g></g><g transform="matrix(1, 0, 0, 1, 324, 516)"><g clip-path="url(#65f4fba943)"><g fill="#ffffff" fill-opacity="1"><g transform="translate(1.735853, 240.755396)"><g><path d="M 55.421875 0 C 47.347656 0 40.285156 -1.238281 34.234375 -3.71875 C 29.421875 -5.425781 24.453125 -8.613281 19.328125 -13.28125 C 10.484375 -21.507812 6.445312 -31.910156 7.21875 -44.484375 L 7.21875 -47.046875 L 33.296875 -46.578125 L 35.40625 -46.578125 L 35.40625 -44.71875 C 35.550781 -40.832031 36.40625 -37.648438 37.96875 -35.171875 C 40.601562 -30.660156 46.421875 -28.40625 55.421875 -28.40625 C 62.878906 -28.40625 68.238281 -29.257812 71.5 -30.96875 C 73.207031 -31.75 74.367188 -32.757812 74.984375 -34 C 75.296875 -34.46875 75.453125 -34.9375 75.453125 -35.40625 L 75.6875 -36.5625 C 75.6875 -39.820312 73.125 -42.460938 68 -44.484375 C 65.976562 -45.253906 63.648438 -45.875 61.015625 -46.34375 C 58.992188 -46.8125 56.742188 -47.203125 54.265625 -47.515625 C 44.953125 -48.441406 37.1875 -50.300781 30.96875 -53.09375 C 24.757812 -55.582031 19.640625 -59 15.609375 -63.34375 C 10.015625 -69.707031 7.21875 -77.003906 7.21875 -85.234375 C 7.21875 -90.359375 8.148438 -95.09375 10.015625 -99.4375 C 11.410156 -102.851562 13.273438 -105.882812 15.609375 -108.53125 C 23.992188 -118.15625 37.421875 -122.96875 55.890625 -122.96875 C 66.910156 -122.96875 76.226562 -120.789062 83.84375 -116.4375 C 89.738281 -113.175781 94.472656 -108.753906 98.046875 -103.171875 C 100.835938 -98.972656 102.78125 -94.082031 103.875 -88.5 C 104.175781 -86.632812 104.40625 -84.847656 104.5625 -83.140625 L 104.5625 -78.25 L 76.390625 -78.25 L 76.390625 -81.75 C 76.234375 -82.363281 76.15625 -82.984375 76.15625 -83.609375 C 75.6875 -85.316406 75.066406 -86.710938 74.296875 -87.796875 C 70.878906 -92.453125 64.742188 -94.78125 55.890625 -94.78125 C 42.847656 -94.78125 36.328125 -92.066406 36.328125 -86.640625 C 36.328125 -83.835938 37.878906 -81.582031 40.984375 -79.875 C 44.242188 -77.863281 49.757812 -76.390625 57.53125 -75.453125 C 75.382812 -73.585938 88.347656 -67.921875 96.421875 -58.453125 C 101.847656 -52.085938 104.5625 -44.789062 104.5625 -36.5625 L 104.5625 -34.9375 L 104.328125 -32.84375 C 104.328125 -30.820312 104.097656 -28.957031 103.640625 -27.25 C 102.390625 -22.28125 100.0625 -17.851562 96.65625 -13.96875 C 92.769531 -9.3125 87.332031 -5.820312 80.34375 -3.5 C 73.351562 -1.164062 65.046875 0 55.421875 0 Z M 55.421875 0 "/></g></g></g><g fill="#ffffff" fill-opacity="1"><g transform="translate(113.292283, 240.755396)"><g><path d="M 62.1875 -119.9375 C 78.789062 -120.09375 92.914062 -114.347656 104.5625 -102.703125 C 116.363281 -90.898438 122.265625 -76.769531 122.265625 -60.3125 C 122.421875 -43.707031 116.675781 -29.582031 105.03125 -17.9375 C 93.382812 -6.132812 79.332031 -0.15625 62.875 0 C 46.269531 0.15625 32.066406 -5.585938 20.265625 -17.234375 C 8.460938 -28.878906 2.5625 -43.007812 2.5625 -59.625 C 2.40625 -76.238281 8.148438 -90.363281 19.796875 -102 C 31.441406 -113.800781 45.570312 -119.78125 62.1875 -119.9375 Z M 83.375 -39.125 C 89.113281 -44.875 91.984375 -51.859375 91.984375 -60.078125 C 91.984375 -68.160156 89.035156 -75.148438 83.140625 -81.046875 C 77.242188 -86.640625 70.257812 -89.4375 62.1875 -89.4375 C 54.113281 -89.4375 47.203125 -86.5625 41.453125 -80.8125 C 35.710938 -74.757812 32.84375 -67.773438 32.84375 -59.859375 C 32.84375 -51.785156 35.789062 -44.796875 41.6875 -38.890625 C 47.425781 -33.148438 54.410156 -30.28125 62.640625 -30.28125 C 71.023438 -30.582031 77.9375 -33.53125 83.375 -39.125 Z M 83.375 -39.125 "/></g></g></g><g fill="#ffffff" fill-opacity="1"><g transform="translate(238.123699, 240.755396)"><g><path d="M 153.703125 -120.171875 C 169.847656 -120.328125 182.96875 -115.515625 193.0625 -105.734375 C 203.9375 -95.484375 209.375 -81.117188 209.375 -62.640625 L 209.375 0 L 179.09375 0 L 179.09375 -60.546875 C 179.09375 -62.878906 178.703125 -65.519531 177.921875 -68.46875 C 176.835938 -72.039062 175.363281 -75.222656 173.5 -78.015625 C 168.53125 -85.929688 161.234375 -89.890625 151.609375 -89.890625 C 141.359375 -89.890625 133.90625 -85.929688 129.25 -78.015625 C 127.539062 -75.066406 126.300781 -71.726562 125.53125 -68 C 124.90625 -65.363281 124.59375 -62.722656 124.59375 -60.078125 L 124.59375 0 L 94.09375 0 L 94.09375 -60.546875 C 94.09375 -62.878906 93.703125 -65.519531 92.921875 -68.46875 C 91.992188 -72.039062 90.597656 -75.222656 88.734375 -78.015625 C 83.609375 -85.929688 76.3125 -89.890625 66.84375 -89.890625 C 56.4375 -89.890625 48.90625 -85.929688 44.25 -78.015625 C 42.539062 -75.066406 41.296875 -71.726562 40.515625 -68 C 39.898438 -65.363281 39.59375 -62.722656 39.59375 -60.078125 L 39.59375 0 L 6.984375 0 L 6.984375 -120.40625 L 39.59375 -120.40625 L 39.59375 -107.828125 C 47.195312 -116.054688 56.976562 -120.171875 68.9375 -120.171875 C 86.476562 -120.484375 100.679688 -113.726562 111.546875 -99.90625 L 121.34375 -109 C 130.5 -116.445312 141.285156 -120.171875 153.703125 -120.171875 Z M 153.703125 -120.171875 "/></g></g></g><g fill="#ffffff" fill-opacity="1"><g transform="translate(454.482624, 240.755396)"><g><path d="M 39.359375 -162.328125 L 39.359375 -134.84375 L 6.984375 -134.84375 L 6.984375 -162.328125 Z M 39.59375 -119.703125 L 39.59375 0 L 6.984375 0 L 6.984375 -119.703125 Z M 39.59375 -119.703125 "/></g></g></g><g fill="#ffffff" fill-opacity="1"><g transform="translate(501.061522, 240.755396)"><g><path d="M 66.609375 -119.46875 C 83.679688 -120.863281 97.8125 -116.441406 109 -106.203125 C 120.945312 -95.171875 126.921875 -79.722656 126.921875 -59.859375 L 126.921875 0 L 96.65625 0 L 96.65625 -59.15625 L 96.421875 -59.15625 L 96.421875 -59.625 C 96.421875 -67.851562 93.546875 -74.835938 87.796875 -80.578125 C 82.054688 -86.328125 75.070312 -89.203125 66.84375 -89.203125 C 58.457031 -88.890625 51.46875 -85.9375 45.875 -80.34375 C 39.976562 -74.445312 37.1875 -67.460938 37.5 -59.390625 L 37.5 -59.15625 L 37.265625 -59.15625 L 37.265625 0 L 4.65625 0 L 4.65625 -120.40625 L 37.265625 -120.40625 L 37.265625 -104.796875 C 44.554688 -113.492188 54.335938 -118.382812 66.609375 -119.46875 Z M 66.609375 -119.46875 "/></g></g></g><g fill="#ffffff" fill-opacity="1"><g transform="translate(632.646905, 240.755396)"><g><path d="M 100.84375 0 L 100.84375 -13.734375 C 89.664062 -4.578125 77.007812 0 62.875 0 C 46.414062 0.15625 32.289062 -5.585938 20.5 -17.234375 C 8.695312 -28.878906 2.71875 -43.007812 2.5625 -59.625 C 2.40625 -76.082031 8.148438 -90.207031 19.796875 -102 C 31.441406 -113.800781 45.570312 -119.78125 62.1875 -119.9375 C 76.625 -119.9375 89.429688 -115.359375 100.609375 -106.203125 L 100.609375 -162.5625 L 133.21875 -162.5625 L 133.453125 0 Z M 83.609375 -39.125 C 89.347656 -44.875 92.21875 -51.859375 92.21875 -60.078125 C 91.914062 -68.460938 88.96875 -75.453125 83.375 -81.046875 C 77.476562 -86.640625 70.492188 -89.4375 62.421875 -89.4375 C 54.191406 -89.4375 47.203125 -86.5625 41.453125 -80.8125 C 35.710938 -74.445312 32.921875 -67.460938 33.078125 -59.859375 C 33.078125 -51.628906 35.945312 -44.640625 41.6875 -38.890625 C 47.425781 -33.148438 54.410156 -30.28125 62.640625 -30.28125 C 71.023438 -30.582031 78.015625 -33.53125 83.609375 -39.125 Z M 83.609375 -39.125 "/></g></g></g><g fill="#ffffff" fill-opacity="1"><g transform="translate(773.082172, 240.755396)"><g><path d="M 39.59375 -102 C 42.226562 -109.457031 46.648438 -114.660156 52.859375 -117.609375 C 58.921875 -120.554688 68.003906 -122.03125 80.109375 -122.03125 L 80.109375 -88.734375 C 68.316406 -88.734375 58.457031 -84.695312 50.53125 -76.625 C 43.238281 -69.476562 39.59375 -61.632812 39.59375 -53.09375 L 39.59375 0 L 6.984375 0 L 6.984375 -119.9375 L 39.59375 -119.9375 Z M 39.59375 -102 "/></g></g></g></g></g></svg>